<!-- icon666.com - MILLIONS vector ICONS FREE --><svg id="Layer_1" enable-background="new 0 0 64 64" viewBox="0 0 64 64" xmlns="http://www.w3.org/2000/svg"><g><path d="m49.868 26h-2.368v-6.61c0-8.486-6.953-15.39-15.5-15.39s-15.5 6.904-15.5 15.39v6.61h-2.368c-3.033 0-5.5 2.467-5.5 5.5v23c0 3.032 2.467 5.5 5.5 5.5h35.736c3.032 0 5.5-2.468 5.5-5.5v-23c0-3.033-2.468-5.5-5.5-5.5zm-30.368-6.61c0-6.832 5.608-12.39 12.5-12.39s12.5 5.558 12.5 12.39v6.61h-25zm32.868 35.11c0 1.379-1.121 2.5-2.5 2.5h-35.736c-1.378 0-2.5-1.121-2.5-2.5v-23c0-1.378 1.122-2.5 2.5-2.5h35.736c1.379 0 2.5 1.122 2.5 2.5z"></path><path d="m46 33c-.828 0-1.5.672-1.5 1.5v17c0 .828.672 1.5 1.5 1.5s1.5-.672 1.5-1.5v-17c0-.828-.672-1.5-1.5-1.5z"></path></g></svg>